<?xml version="1.0" encoding="utf-8"?>
<!-- Generator: Adobe Illustrator 16.0.0, SVG Export Plug-In . SVG Version: 6.00 Build 0)  -->
<!DOCTYPE svg PUBLIC "-//W3C//DTD SVG 1.1//EN" "http://www.w3.org/Graphics/SVG/1.1/DTD/svg11.dtd">
<svg version="1.1" id="圖層_1" xmlns="http://www.w3.org/2000/svg" xmlns:xlink="http://www.w3.org/1999/xlink" x="0px" y="0px"
	 width="180px" height="30px" viewBox="-30 -3 180 30" enable-background="new -30 -3 180 30" xml:space="preserve">
<title>logo_w</title>
<desc>Created with Sketch.</desc>
<g>
	<path fill="#FFFFFF" d="M0.822,0.873c0.065,0,0.065,0.032,0.065,0.065c0,0.163-0.032,0.357-0.129,0.39L0.042,1.588
		c-0.26,0.065-0.358,0.26-0.358,0.423c-0.098,2.179-0.032,7.351-0.032,8.782c-0.033,1.626,0.032,3.87-0.456,5.724
		c-0.813,3.09-3.415,5.041-6.895,5.041c-0.683,0-1.171-0.032-1.659-0.163c-0.097-0.032-0.162-0.098-0.194-0.227l-0.585-3.872
		c0-0.097,0.26-0.291,0.39-0.291c0.033,0,0.065,0,0.098,0.064c0.52,1.008,1.269,2.438,1.691,3.024
		c0.162,0.195,0.292,0.357,0.455,0.456c0.326,0.194,0.683,0.259,0.976,0.259c1.366,0,2.276-1.138,2.504-4.422
		c0.097-1.301,0-3.448-0.097-5.985C-4.187,8.19-4.479,3.051-4.577,2.173C-4.609,1.816-4.674,1.62-5.032,1.555L-6.236,1.36
		C-6.333,1.327-6.398,1.198-6.398,0.97c0-0.065,0-0.097,0.065-0.097H0.822z"/>
	<path fill="#FFFFFF" d="M9.993,7.084c-0.098,0-0.163-0.228-0.163-0.292c0-0.065,0-0.13,0.097-0.163l4.261-0.781
		c0.195-0.032,0.261,0.097,0.261,0.293c0,0.552,0.032,5.821,0.032,7.187c0,1.758,0.065,5.433,0.13,6.44
		c0,0.228,0.032,0.39,0.26,0.456l0.878,0.325c0.13,0.032,0.195,0.194,0.195,0.325c0,0.064-0.032,0.064-0.129,0.064
		c-0.684-0.032-1.562-0.032-2.408-0.032c-0.78,0-1.496,0-2.146,0.032c-0.163,0-0.228-0.097-0.228-0.39
		c0-0.099-0.098-2.765-0.065-3.87v-0.879h-0.13c-0.129,0.357-0.227,0.683-0.26,0.813c-0.91,2.862-2.309,4.555-4.195,4.555
		c-2.146,0-3.415-2.343-3.415-6.474c0-2.569,0.26-5.561,0.423-7.057C3.423,7.28,3.358,7.182,3.098,7.182H2.123
		c-0.13,0-0.228-0.261-0.228-0.39c0-0.065,0.032-0.098,0.098-0.13l4.391-0.813c0.195-0.032,0.26,0.097,0.228,0.325
		c-0.033,0.553-0.13,5.204-0.13,6.341c0,4.424,0.357,6.441,1.496,6.441c1.691,0,2.83-4.001,3.123-8.359
		c0.032-0.553,0.163-2.569,0.163-2.992c0-0.26-0.13-0.423-0.358-0.423L9.993,7.084z"/>
	<path fill="#FFFFFF" d="M21.927-1.046c0.26-0.033,0.293,0.097,0.293,0.357c0,0.488-0.261,6.928-0.325,10.408
		c-0.033,1.724-0.196,9.757-0.196,10.146c0,0.229,0.098,0.327,0.325,0.392l1.106,0.325c0.097,0.032,0.162,0.162,0.162,0.325
		c0,0.032,0,0.064-0.065,0.064c-1.138-0.032-1.886-0.064-3.22-0.064c-1.431,0-2.244,0.032-2.992,0.064
		c-0.033,0-0.065-0.032-0.065-0.064c0-0.099,0.032-0.261,0.13-0.293l1.138-0.325c0.195-0.064,0.325-0.131,0.325-0.325
		c0.032-0.683-0.098-8.651-0.098-9.725c0-1.106-0.13-7.416-0.228-9.66c0-0.228-0.065-0.456-0.293-0.488l-1.398-0.13
		c-0.13,0-0.228-0.163-0.228-0.325c0-0.064,0-0.098,0.098-0.098L21.927-1.046z"/>
	<path fill="#FFFFFF" d="M29.603,5.849c0.26-0.032,0.293,0.163,0.293,0.325c0,0.39-0.228,5.334-0.293,7.447
		c-0.033,1.269-0.131,4.749-0.131,6.278c0,0.227,0.098,0.293,0.325,0.357l1.106,0.325c0.065,0.032,0.13,0.227,0.13,0.325
		c0,0.032-0.033,0.064-0.065,0.064c-0.65-0.032-1.887-0.064-3.155-0.064c-1.398,0-2.602,0.032-3.09,0.064
		c-0.098,0-0.098-0.032-0.098-0.064c0-0.163,0.065-0.293,0.163-0.325l1.17-0.39c0.196-0.066,0.325-0.099,0.325-0.293
		c0-0.325-0.064-4.392-0.097-6.084c-0.032-1.429-0.129-5.007-0.163-6.048c0-0.228-0.065-0.358-0.292-0.358l-1.269-0.064
		c-0.099,0-0.228-0.195-0.228-0.39c0-0.065,0-0.098,0.065-0.098L29.603,5.849z M27.65,0.71c1.106,0,1.756,0.715,1.756,1.658
		c0,1.041-0.813,1.756-1.789,1.756c-0.91,0-1.919-0.585-1.919-1.658c0-0.977,0.748-1.756,1.919-1.756H27.65z"/>
	<path fill="#FFFFFF" d="M39.423,12.061c0-0.781-0.064-1.302-0.129-1.756c-0.131-1.367-0.716-2.862-2.05-2.862
		c-1.073,0-2.212,0.715-3.447,2.114c-0.032,0.033-0.065,0.065-0.098,0.065c-0.097,0-0.39-0.293-0.26-0.456
		c1.789-2.439,3.805-3.317,5.952-3.317c2.862,0,3.642,2.927,3.642,6.179c0,0.585-0.064,2.862-0.097,3.871
		c-0.065,1.594-0.163,3.284-0.163,3.935c0,0.196,0.033,0.261,0.293,0.359l0.845,0.325c0.163,0.064,0.196,0.227,0.196,0.357
		c0,0.064-0.033,0.064-0.098,0.064c-0.391-0.032-1.334-0.032-2.277-0.032c-0.813,0-1.496,0.032-1.854,0.032
		c-0.065,0-0.13-0.064-0.13-0.195c-0.032-0.325-0.064-1.463-0.064-2.276c0-0.194,0.032-0.683,0.032-0.813l-0.065-0.034
		c-0.098,0.196-0.195,0.456-0.325,0.685c-0.683,1.495-1.757,2.862-3.61,2.862c-1.789,0-3.382-1.562-3.382-4.555
		c0-2.731,1.366-5.821,4.26-5.821c1.073,0,1.822,0.39,2.276,0.845c0.131,0.13,0.293,0.293,0.424,0.456L39.423,12.061z
		 M37.375,19.411c0.813,0,1.756-1.301,2.146-3.22c0.064-0.325,0.13-0.651,0.13-0.943c0-0.229-0.065-0.65-0.098-0.911
		c-0.163-0.911-0.748-2.634-1.984-2.634c-1.203,0-1.594,2.147-1.594,4.423c0,2.049,0.521,3.285,1.366,3.285H37.375z"/>
	<path fill="#FFFFFF" d="M47.131-0.884c0,1.008-1.073,4.098-2.276,5.659c-0.033,0.033-0.098,0.033-0.131,0
		c-0.097-0.064-0.293-0.26-0.26-0.357c0.52-1.756,0.683-3.838,0.748-4.521c0-0.163,0.13-0.423,0.553-0.586
		c0.358-0.13,1.041-0.357,1.236-0.357c0.098,0,0.13,0.032,0.13,0.129V-0.884z"/>
	<path fill="#FFFFFF" d="M46.285,10.597c0-2.211,2.212-4.748,5.692-4.748c0.976,0,1.691,0.097,2.082,0.228
		c0.098,0.065,0.13,0.098,0.13,0.228l0.293,2.992c0,0.163-0.293,0.357-0.423,0.357c-0.032,0-0.064,0-0.098-0.064
		c-0.422-0.781-0.813-1.496-1.333-2.277c-0.097-0.163-0.195-0.292-0.39-0.456c-0.228-0.195-0.618-0.292-1.041-0.292
		c-1.204,0-1.887,1.008-1.887,2.082c0,1.366,0.65,2.114,2.406,3.252c1.854,1.203,3.09,2.57,3.09,4.489
		c0,2.764-2.537,4.781-6.147,4.781c-0.456,0-1.529-0.066-2.082-0.261c-0.097-0.032-0.195-0.099-0.228-0.293l-0.26-3.025
		c0-0.162,0.325-0.325,0.422-0.325c0.032,0,0.065,0,0.097,0.066c0.424,0.715,0.878,1.594,1.366,2.341
		c0.163,0.261,0.391,0.391,0.586,0.521c0.26,0.162,0.65,0.291,0.976,0.291c1.235,0,2.504-0.715,2.504-2.21
		c0-1.269-0.715-2.18-2.731-3.384c-2.147-1.269-3.025-2.569-3.025-4.26V10.597z"/>
	<path fill="#FFFFFF" d="M61.57,12.32c0-4.878,1.594-8.098,3.771-9.919c1.303-1.138,2.961-1.789,4.75-1.789
		c0.78,0,1.594,0.065,2.211,0.358c0.131,0.032,0.163,0.13,0.195,0.293l0.455,4.13c0.033,0.13-0.324,0.293-0.455,0.293
		c-0.032,0-0.064-0.033-0.098-0.065c-0.553-1.203-1.105-2.439-1.658-3.642c-0.064-0.196-0.195-0.391-0.326-0.521
		c-0.13-0.13-0.357-0.228-0.617-0.228c-0.878,0-1.563,0.683-2.146,1.562c-1.301,1.983-1.984,4.813-1.984,9.042c0,6.18,2.439,8,4,8
		c0.717,0,1.367-0.097,1.725-0.194c0.357-0.099,1.268-0.456,1.659-0.683c0.064-0.032,0.163,0.162,0.163,0.39
		c0,0.065-0.034,0.13-0.099,0.194c-0.456,0.325-1.366,0.847-2.343,1.269c-0.389,0.163-1.234,0.359-2.374,0.359
		c-3.609,0-6.829-2.537-6.829-8.815V12.32z"/>
	<path fill="#FFFFFF" d="M81.408,12.061c0-0.781-0.064-1.302-0.13-1.756c-0.129-1.367-0.715-2.862-2.048-2.862
		c-1.074,0-2.212,0.715-3.448,2.114c-0.032,0.033-0.064,0.065-0.099,0.065c-0.096,0-0.389-0.293-0.259-0.456
		c1.788-2.439,3.806-3.317,5.952-3.317c2.861,0,3.643,2.927,3.643,6.179c0,0.585-0.066,2.862-0.098,3.871
		c-0.064,1.594-0.163,3.284-0.163,3.935c0,0.196,0.032,0.261,0.293,0.359l0.845,0.325c0.163,0.064,0.195,0.227,0.195,0.357
		c0,0.064-0.032,0.064-0.097,0.064c-0.392-0.032-1.335-0.032-2.276-0.032c-0.814,0-1.497,0.032-1.854,0.032
		c-0.064,0-0.13-0.064-0.13-0.195c-0.033-0.325-0.064-1.463-0.064-2.276c0-0.194,0.031-0.683,0.031-0.813l-0.064-0.034
		c-0.098,0.196-0.195,0.456-0.324,0.685c-0.685,1.495-1.757,2.862-3.611,2.862c-1.789,0-3.383-1.562-3.383-4.555
		c0-2.731,1.365-5.821,4.26-5.821c1.074,0,1.822,0.39,2.278,0.845c0.13,0.13,0.293,0.293,0.422,0.456L81.408,12.061z M79.359,19.411
		c0.813,0,1.756-1.301,2.147-3.22c0.064-0.325,0.13-0.651,0.13-0.943c0-0.229-0.065-0.65-0.098-0.911
		c-0.162-0.911-0.748-2.634-1.983-2.634c-1.204,0-1.594,2.147-1.594,4.423c0,2.049,0.521,3.285,1.365,3.285H79.359z"/>
	<path fill="#FFFFFF" d="M101.41,20.582c0.064,0.032,0.13,0.227,0.13,0.325c0,0.032,0,0.064-0.065,0.064
		c-1.008-0.032-1.725-0.064-2.959-0.064c-1.399,0-2.148,0.032-2.993,0.064c-0.064,0-0.064-0.032-0.064-0.064
		c0-0.163,0.032-0.293,0.129-0.325l1.009-0.325c0.26-0.099,0.326-0.228,0.357-0.488c0.033-0.455,0.163-3.48,0.163-4.749
		c0-2.505-0.064-6.309-1.692-6.309c-1.267,0-2.438,2.602-3.023,5.919c-0.13,0.91-0.391,3.74-0.358,5.203
		c0,0.261,0.13,0.359,0.293,0.424l1.008,0.325c0.099,0.032,0.13,0.227,0.13,0.325c0,0.032,0,0.064-0.064,0.064
		c-1.008-0.032-1.822-0.064-3.024-0.064c-1.333,0-2.081,0.032-3.058,0.064c-0.065,0-0.065-0.032-0.065-0.064
		c0-0.163,0.065-0.325,0.163-0.357l1.172-0.293c0.194-0.064,0.324-0.163,0.324-0.357c0-0.911-0.065-4.813-0.065-6.05
		c0-0.976-0.129-4.912-0.163-6.05c0-0.228-0.064-0.391-0.291-0.423L87.295,7.28c-0.099,0-0.197-0.26-0.197-0.423
		c0-0.032,0-0.064,0.099-0.098l5.042-0.91c0.162-0.032,0.227,0.097,0.227,0.26c0,0.13-0.098,3.578-0.162,5.106
		c0,0.325-0.032,0.65-0.064,1.009h0.129c0.098-0.391,0.196-0.749,0.261-0.911c0.749-2.472,2.407-5.464,4.424-5.464
		c2.244,0,3.316,2.212,3.316,6.277c0,2.146-0.194,6.049-0.325,7.415c-0.032,0.424,0.032,0.554,0.293,0.652L101.41,20.582z"/>
	<path fill="#FFFFFF" d="M114.645-1.046c0.261-0.033,0.293,0.163,0.293,0.325s-0.39,10.928-0.422,13.009
		c-0.033,1.04-0.162,7.22-0.162,7.577c0,0.261,0.129,0.327,0.357,0.392l1.008,0.325c0.13,0.032,0.162,0.162,0.162,0.293
		c0,0.032,0,0.064-0.064,0.064c-0.684-0.032-1.463-0.032-2.244-0.032c-1.074,0-1.626,0-2.147,0.032c-0.13,0-0.163-0.064-0.163-0.357
		v-3.448c0-0.521,0.033-0.585,0.033-1.04l-0.163-0.032c-0.129,0.39-0.228,0.683-0.357,0.976c-0.618,1.658-1.919,4.131-4.065,4.131
		c-2.017,0-3.61-2.05-3.61-6.05c0-5.497,2.278-9.27,5.919-9.27c0.879,0,1.498,0.325,1.822,0.585c0.163,0.13,0.26,0.228,0.326,0.358
		l0.129-0.065c-0.064-0.553-0.098-0.976-0.129-1.431c-0.034-0.683-0.066-2.7-0.163-4.716c0-0.228-0.065-0.391-0.293-0.391
		l-1.822-0.129c-0.097,0-0.194-0.228-0.194-0.391c0-0.033,0-0.065,0.065-0.065L114.645-1.046z M108.4,18.89
		c1.334,0,2.374-2.634,2.861-6.276c0.033-0.293,0.099-0.683,0.099-0.911c0-0.488,0-0.91-0.032-1.398
		c-0.162-1.724-0.717-3.806-2.082-3.806c-1.529,0-2.473,2.341-2.473,7.316c0,2.343,0.424,5.074,1.594,5.074H108.4z"/>
	<path fill="#FFFFFF" d="M129.41,6.108c0.097,0,0.097,0.033,0.097,0.065c0,0.163-0.032,0.325-0.163,0.39l-0.422,0.163
		c-0.293,0.13-0.423,0.195-0.487,0.456c-0.716,2.537-3.123,9.887-4.651,13.301c-0.748,1.757-2.96,6.668-5.919,6.668
		c-0.521,0-0.749-0.064-0.814-0.293l-0.813-3.22c-0.031-0.098,0.197-0.39,0.293-0.39c0.033,0,0.066,0,0.099,0.032l0.813,1.106
		c0.52,0.683,0.748,0.78,1.073,0.78c0.813,0,2.602-1.105,3.382-3.123c0.064-0.162,0.098-0.325-0.031-0.65
		c-1.236-3.284-3.254-9.464-4.619-14.18c-0.066-0.195-0.098-0.358-0.325-0.422l-0.716-0.228c-0.131-0.033-0.163-0.195-0.163-0.358
		c0-0.064,0-0.098,0.099-0.098h6.666c0.098,0,0.098,0.033,0.098,0.098c0,0.163-0.064,0.325-0.194,0.358l-0.813,0.228
		c-0.194,0.032-0.293,0.195-0.26,0.455c0.357,2.049,1.398,7.123,2.017,9.823c0.064,0.227,0.097,0.487,0.163,0.879h0.13
		c0.129-0.424,0.228-0.814,0.292-1.074c0.716-3.024,1.529-7.188,1.659-9.66c0.032-0.26-0.065-0.39-0.325-0.422l-0.813-0.228
		c-0.131-0.033-0.197-0.163-0.197-0.358c0-0.064,0.034-0.098,0.099-0.098H129.41z"/>
</g>
<rect x="-30" y="9.149" fill="#FFFFFF" width="17.651" height="2.102"/>
<rect x="-30" y="12.746" fill="#FFFFFF" width="17.651" height="1.055"/>
<rect x="132.349" y="9.149" fill="#FFFFFF" width="17.651" height="2.102"/>
<rect x="132.349" y="12.746" fill="#FFFFFF" width="17.651" height="1.055"/>
</svg>
