<?xml version="1.0" encoding="utf-8"?>
<!-- Generator: Adobe Illustrator 16.0.0, SVG Export Plug-In . SVG Version: 6.00 Build 0)  -->
<!DOCTYPE svg PUBLIC "-//W3C//DTD SVG 1.1//EN" "http://www.w3.org/Graphics/SVG/1.1/DTD/svg11.dtd">
<svg version="1.1" id="圖層_1" xmlns="http://www.w3.org/2000/svg" xmlns:xlink="http://www.w3.org/1999/xlink" x="0px" y="0px"
	 width="243px" height="48px" viewBox="0 0 243 48" enable-background="new 0 0 243 48" xml:space="preserve">
<g>
	<title>logo_l</title>
	<desc>Created with Sketch.</desc>
	<g>
		<path fill="#388E3C" d="M41.609,7.466c0.088,0,0.088,0.043,0.088,0.088c0,0.219-0.044,0.482-0.174,0.526l-0.966,0.352
			c-0.351,0.088-0.483,0.352-0.483,0.571c-0.132,2.941-0.044,9.924-0.044,11.855c-0.044,2.195,0.044,5.224-0.614,7.728
			c-1.098,4.172-4.609,6.805-9.309,6.805c-0.921,0-1.58-0.045-2.239-0.219c-0.132-0.043-0.219-0.133-0.263-0.307l-0.79-5.229
			c0-0.131,0.352-0.393,0.526-0.393c0.044,0,0.087,0,0.132,0.088c0.702,1.358,1.713,3.291,2.284,4.082
			c0.219,0.264,0.394,0.481,0.613,0.617c0.44,0.26,0.922,0.348,1.318,0.348c1.845,0,3.074-1.535,3.381-5.969
			c0.131-1.757,0-4.654-0.131-8.08c-0.088-2.986-0.484-9.923-0.616-11.109c-0.043-0.482-0.131-0.746-0.614-0.834l-1.625-0.263
			c-0.131-0.044-0.22-0.219-0.22-0.527c0-0.088,0-0.131,0.089-0.131L41.609,7.466L41.609,7.466z"/>
		<path fill="#388E3C" d="M53.991,15.851c-0.132,0-0.22-0.307-0.22-0.394c0-0.088,0-0.176,0.131-0.22l5.752-1.054
			c0.263-0.043,0.352,0.131,0.352,0.396c0,0.746,0.043,7.858,0.043,9.702c0,2.373,0.089,7.334,0.176,8.693
			c0,0.309,0.044,0.524,0.352,0.616l1.186,0.439c0.175,0.043,0.263,0.26,0.263,0.438c0,0.089-0.043,0.089-0.174,0.089
			c-0.923-0.043-2.108-0.043-3.251-0.043c-1.053,0-2.019,0-2.897,0.043c-0.22,0-0.307-0.132-0.307-0.525
			c0-0.135-0.132-3.734-0.089-5.227v-1.187h-0.176c-0.174,0.481-0.306,0.922-0.351,1.098c-1.229,3.863-3.117,6.148-5.664,6.148
			c-2.898,0-4.61-3.164-4.61-8.74c0-3.467,0.35-7.508,0.571-9.526c0.044-0.483-0.043-0.615-0.395-0.615h-1.317
			c-0.175,0-0.308-0.352-0.308-0.527c0-0.088,0.043-0.132,0.132-0.176l5.927-1.098c0.264-0.043,0.352,0.131,0.307,0.439
			c-0.043,0.747-0.175,7.025-0.175,8.56c0,5.973,0.483,8.697,2.02,8.697c2.283,0,3.819-5.401,4.215-11.285
			c0.044-0.747,0.22-3.47,0.22-4.04c0-0.351-0.176-0.571-0.483-0.571L53.991,15.851z"/>
		<path fill="#388E3C" d="M70.102,4.875c0.352-0.045,0.396,0.131,0.396,0.482c0,0.658-0.352,9.353-0.439,14.051
			c-0.044,2.327-0.264,13.171-0.264,13.697c0,0.309,0.131,0.44,0.438,0.528l1.494,0.439c0.131,0.043,0.219,0.217,0.219,0.438
			c0,0.043,0,0.086-0.088,0.086c-1.536-0.043-2.546-0.086-4.347-0.086c-1.932,0-3.029,0.043-4.039,0.086
			c-0.044,0-0.087-0.043-0.087-0.086c0-0.135,0.043-0.354,0.176-0.396l1.537-0.439c0.263-0.086,0.439-0.178,0.439-0.438
			c0.043-0.923-0.131-11.68-0.131-13.129c0-1.494-0.176-10.011-0.308-13.041c0-0.308-0.088-0.615-0.396-0.659l-1.888-0.176
			c-0.175,0-0.307-0.219-0.307-0.438c0-0.087,0-0.132,0.132-0.132L70.102,4.875z"/>
		<path fill="#388E3C" d="M80.463,14.184c0.351-0.043,0.395,0.219,0.395,0.439c0,0.527-0.308,7.201-0.395,10.053
			c-0.045,1.713-0.176,6.412-0.176,8.477c0,0.306,0.131,0.396,0.438,0.482l1.494,0.439c0.088,0.043,0.175,0.305,0.175,0.439
			c0,0.043-0.044,0.086-0.087,0.086c-0.878-0.043-2.547-0.086-4.259-0.086c-1.888,0-3.513,0.043-4.171,0.086
			c-0.132,0-0.132-0.043-0.132-0.086c0-0.224,0.088-0.396,0.22-0.439l1.58-0.527c0.264-0.09,0.438-0.133,0.438-0.395
			c0-0.439-0.086-5.928-0.13-8.213c-0.044-1.931-0.175-6.762-0.22-8.167c0-0.308-0.087-0.483-0.394-0.483l-1.712-0.087
			c-0.133,0-0.308-0.264-0.308-0.527c0-0.088,0-0.132,0.087-0.132L80.463,14.184z M77.828,7.247c1.493,0,2.371,0.966,2.371,2.239
			c0,1.405-1.098,2.371-2.415,2.371c-1.229,0-2.59-0.79-2.59-2.238c0-1.318,1.009-2.371,2.59-2.371L77.828,7.247L77.828,7.247z"/>
		<path fill="#388E3C" d="M93.722,22.57c0-1.053-0.087-1.757-0.175-2.371c-0.177-1.844-0.967-3.863-2.767-3.863
			c-1.449,0-2.986,0.965-4.654,2.854c-0.043,0.043-0.088,0.087-0.131,0.087c-0.132,0-0.527-0.396-0.351-0.616
			c2.414-3.292,5.136-4.477,8.034-4.477c3.864,0,4.917,3.951,4.917,8.341c0,0.792-0.086,3.864-0.131,5.225
			c-0.087,2.152-0.219,4.434-0.219,5.313c0,0.267,0.044,0.353,0.395,0.484l1.141,0.439c0.22,0.088,0.264,0.305,0.264,0.481
			c0,0.089-0.044,0.089-0.131,0.089c-0.527-0.043-1.801-0.043-3.074-0.043c-1.097,0-2.02,0.043-2.502,0.043
			c-0.089,0-0.176-0.089-0.176-0.267c-0.043-0.438-0.087-1.974-0.087-3.07c0-0.266,0.044-0.924,0.044-1.098l-0.088-0.045
			c-0.132,0.264-0.264,0.612-0.439,0.922c-0.921,2.021-2.372,3.865-4.874,3.865c-2.415,0-4.566-2.107-4.566-6.148
			c0-3.688,1.844-7.859,5.751-7.859c1.449,0,2.46,0.526,3.073,1.142c0.177,0.175,0.396,0.396,0.573,0.615L93.722,22.57z
			 M90.956,32.492c1.097,0,2.37-1.756,2.898-4.348c0.087-0.438,0.175-0.877,0.175-1.271c0-0.309-0.088-0.879-0.132-1.23
			c-0.22-1.229-1.01-3.556-2.679-3.556c-1.624,0-2.151,2.897-2.151,5.972c0,2.767,0.704,4.435,1.844,4.435L90.956,32.492
			L90.956,32.492z"/>
		<path fill="#388E3C" d="M104.126,5.095c0,1.361-1.449,5.532-3.073,7.639c-0.045,0.044-0.131,0.044-0.176,0
			c-0.131-0.086-0.396-0.351-0.351-0.482c0.702-2.371,0.921-5.182,1.009-6.103c0-0.22,0.176-0.572,0.747-0.791
			c0.483-0.175,1.405-0.482,1.669-0.482c0.131,0,0.175,0.043,0.175,0.174V5.095z"/>
		<path fill="#388E3C" d="M102.984,20.594c0-2.985,2.987-6.411,7.685-6.411c1.317,0,2.283,0.131,2.81,0.307
			c0.132,0.088,0.175,0.132,0.175,0.308l0.396,4.039c0,0.22-0.396,0.481-0.571,0.481c-0.043,0-0.087,0-0.132-0.086
			c-0.57-1.055-1.097-2.02-1.8-3.074c-0.131-0.22-0.263-0.396-0.526-0.615c-0.308-0.263-0.835-0.395-1.405-0.395
			c-1.625,0-2.547,1.36-2.547,2.811c0,1.844,0.878,2.853,3.249,4.39c2.503,1.625,4.172,3.469,4.172,6.06
			c0,3.729-3.426,6.455-8.299,6.455c-0.616,0-2.064-0.089-2.811-0.353c-0.131-0.045-0.264-0.135-0.308-0.396l-0.351-4.084
			c0-0.22,0.439-0.439,0.571-0.439c0.043,0,0.087,0,0.131,0.091c0.572,0.965,1.186,2.151,1.844,3.159
			c0.219,0.353,0.527,0.527,0.792,0.703c0.35,0.22,0.877,0.396,1.317,0.396c1.668,0,3.379-0.967,3.379-2.986
			c0-1.711-0.965-2.939-3.687-4.566c-2.899-1.713-4.085-3.468-4.085-5.75L102.984,20.594L102.984,20.594z"/>
		<path fill="#388E3C" d="M123.619,22.92c0-6.585,2.152-10.932,5.092-13.391c1.76-1.537,3.998-2.416,6.413-2.416
			c1.054,0,2.151,0.088,2.985,0.483c0.177,0.043,0.22,0.176,0.263,0.396l0.612,5.576c0.048,0.176-0.437,0.396-0.612,0.396
			c-0.043,0-0.086-0.045-0.132-0.088c-0.747-1.624-1.492-3.292-2.238-4.917c-0.087-0.265-0.266-0.528-0.439-0.703
			c-0.177-0.176-0.483-0.308-0.834-0.308c-1.186,0-2.109,0.922-2.897,2.108c-1.756,2.677-2.679,6.498-2.679,12.206
			c0,8.343,3.293,10.8,5.399,10.8c0.968,0,1.845-0.131,2.328-0.263c0.481-0.133,1.71-0.616,2.24-0.922
			c0.086-0.043,0.22,0.22,0.22,0.524c0,0.089-0.046,0.177-0.134,0.265c-0.616,0.438-1.845,1.144-3.161,1.711
			c-0.525,0.222-1.668,0.486-3.205,0.486c-4.874,0-9.221-3.427-9.221-11.901V22.92L123.619,22.92z"/>
		<path fill="#388E3C" d="M150.4,22.57c0-1.053-0.088-1.757-0.176-2.371c-0.175-1.844-0.966-3.863-2.765-3.863
			c-1.45,0-2.983,0.965-4.655,2.854c-0.043,0.043-0.087,0.087-0.133,0.087c-0.13,0-0.525-0.396-0.35-0.616
			c2.414-3.292,5.138-4.477,8.035-4.477c3.861,0,4.916,3.951,4.916,8.341c0,0.792-0.088,3.864-0.131,5.225
			c-0.086,2.152-0.221,4.434-0.221,5.313c0,0.267,0.044,0.353,0.396,0.484l1.142,0.439c0.22,0.088,0.263,0.305,0.263,0.481
			c0,0.089-0.043,0.089-0.13,0.089c-0.528-0.043-1.803-0.043-3.073-0.043c-1.1,0-2.021,0.043-2.504,0.043
			c-0.088,0-0.176-0.089-0.176-0.267c-0.044-0.438-0.087-1.974-0.087-3.07c0-0.266,0.043-0.924,0.043-1.098l-0.088-0.045
			c-0.132,0.264-0.263,0.612-0.438,0.922c-0.924,2.021-2.371,3.865-4.875,3.865c-2.414,0-4.565-2.107-4.565-6.148
			c0-3.688,1.843-7.859,5.75-7.859c1.45,0,2.46,0.526,3.075,1.142c0.178,0.175,0.396,0.396,0.57,0.615L150.4,22.57z M147.637,32.492
			c1.096,0,2.368-1.756,2.898-4.348c0.085-0.438,0.174-0.877,0.174-1.271c0-0.309-0.089-0.879-0.132-1.23
			c-0.218-1.229-1.011-3.556-2.679-3.556c-1.623,0-2.149,2.897-2.149,5.972c0,2.767,0.702,4.435,1.843,4.435L147.637,32.492
			L147.637,32.492z"/>
		<path fill="#388E3C" d="M177.404,34.074c0.087,0.043,0.174,0.305,0.174,0.439c0,0.043,0,0.086-0.087,0.086
			c-1.36-0.043-2.329-0.086-3.995-0.086c-1.891,0-2.9,0.043-4.042,0.086c-0.086,0-0.086-0.043-0.086-0.086
			c0-0.224,0.044-0.396,0.173-0.439l1.361-0.439c0.353-0.135,0.441-0.307,0.484-0.66c0.045-0.615,0.219-4.697,0.219-6.41
			c0-3.381-0.086-8.517-2.283-8.517c-1.711,0-3.293,3.512-4.082,7.991c-0.176,1.229-0.527,5.049-0.484,7.023
			c0,0.352,0.176,0.483,0.396,0.571l1.359,0.439c0.133,0.043,0.176,0.305,0.176,0.438c0,0.043,0,0.086-0.088,0.086
			c-1.359-0.043-2.459-0.086-4.082-0.086c-1.799,0-2.81,0.043-4.127,0.086c-0.09,0-0.09-0.043-0.09-0.086
			c0-0.223,0.09-0.438,0.221-0.481l1.582-0.396c0.264-0.088,0.438-0.221,0.438-0.481c0-1.23-0.089-6.498-0.089-8.168
			c0-1.316-0.176-6.629-0.221-8.167c0-0.308-0.088-0.527-0.394-0.571l-1.491-0.132c-0.136,0-0.268-0.352-0.268-0.571
			c0-0.044,0-0.087,0.132-0.132l6.808-1.229c0.22-0.043,0.307,0.131,0.307,0.351c0,0.176-0.131,4.83-0.219,6.893
			c0,0.44-0.043,0.879-0.088,1.361h0.176c0.131-0.526,0.264-1.009,0.351-1.229c1.013-3.338,3.25-7.376,5.974-7.376
			c3.028,0,4.478,2.986,4.478,8.474c0,2.896-0.263,8.167-0.44,10.01c-0.043,0.572,0.045,0.746,0.396,0.879L177.404,34.074z"/>
		<path fill="#388E3C" d="M195.27,4.875c0.354-0.045,0.396,0.219,0.396,0.439s-0.527,14.751-0.57,17.562
			c-0.045,1.405-0.219,9.747-0.219,10.229c0,0.352,0.174,0.44,0.48,0.528l1.361,0.439c0.176,0.043,0.221,0.217,0.221,0.395
			c0,0.046,0,0.089-0.088,0.089c-0.924-0.043-1.976-0.043-3.029-0.043c-1.45,0-2.195,0-2.898,0.043
			c-0.175,0-0.221-0.089-0.221-0.482v-4.656c0-0.701,0.046-0.789,0.046-1.402l-0.222-0.045c-0.174,0.527-0.307,0.922-0.482,1.316
			c-0.834,2.238-2.59,5.578-5.488,5.578c-2.722,0-4.873-2.768-4.873-8.168c0-7.42,3.075-12.514,7.989-12.514
			c1.188,0,2.021,0.439,2.461,0.79c0.22,0.176,0.351,0.308,0.44,0.483l0.175-0.088c-0.088-0.747-0.133-1.317-0.175-1.932
			c-0.047-0.922-0.09-3.645-0.221-6.367c0-0.308-0.088-0.526-0.396-0.526l-2.46-0.176c-0.132,0-0.264-0.308-0.264-0.527
			c0-0.043,0-0.087,0.089-0.087L195.27,4.875z M186.841,31.789c1.8,0,3.204-3.557,3.862-8.472c0.046-0.396,0.133-0.922,0.133-1.23
			c0-0.659,0-1.229-0.044-1.888c-0.218-2.327-0.968-5.137-2.812-5.137c-2.063,0-3.336,3.16-3.336,9.877c0,3.162,0.57,6.85,2.15,6.85
			H186.841z"/>
		<path fill="#388E3C" d="M215.203,14.534c0.13,0,0.13,0.045,0.13,0.088c0,0.22-0.044,0.439-0.22,0.527l-0.568,0.22
			c-0.396,0.175-0.572,0.263-0.658,0.615c-0.967,3.425-4.217,13.348-6.279,17.958c-1.01,2.371-3.996,9.002-7.989,9.002
			c-0.704,0-1.013-0.088-1.101-0.396l-1.099-4.348c-0.042-0.134,0.267-0.525,0.396-0.525c0.045,0,0.09,0,0.133,0.043l1.099,1.494
			c0.701,0.922,1.011,1.056,1.448,1.056c1.1,0,3.513-1.492,4.566-4.218c0.086-0.219,0.131-0.44-0.043-0.877
			c-1.668-4.437-4.393-12.777-6.235-19.145c-0.091-0.264-0.132-0.483-0.438-0.57l-0.966-0.308c-0.178-0.044-0.221-0.264-0.221-0.482
			c0-0.088,0-0.133,0.133-0.133h9c0.132,0,0.132,0.045,0.132,0.133c0,0.219-0.087,0.438-0.263,0.482l-1.099,0.308
			c-0.263,0.043-0.396,0.264-0.352,0.614c0.482,2.767,1.889,9.615,2.723,13.261c0.088,0.306,0.131,0.658,0.221,1.188h0.176
			c0.174-0.574,0.308-1.103,0.395-1.451c0.967-4.084,2.064-9.705,2.24-13.042c0.043-0.351-0.089-0.527-0.439-0.57l-1.097-0.308
			c-0.177-0.044-0.267-0.219-0.267-0.482c0-0.088,0.046-0.133,0.133-0.133h6.41V14.534z"/>
	</g>
	<rect y="18.64" fill="#388E3C" width="23.829" height="2.837"/>
	<rect y="23.496" fill="#388E3C" width="23.829" height="1.424"/>
	<rect x="219.17" y="18.64" fill="#388E3C" width="23.83" height="2.837"/>
	<rect x="219.17" y="23.496" fill="#388E3C" width="23.83" height="1.424"/>
</g>
</svg>
