<?xml version="1.0" encoding="utf-8"?>
<!-- Generator: Adobe Illustrator 16.0.0, SVG Export Plug-In . SVG Version: 6.00 Build 0)  -->
<!DOCTYPE svg PUBLIC "-//W3C//DTD SVG 1.1//EN" "http://www.w3.org/Graphics/SVG/1.1/DTD/svg11.dtd">
<svg version="1.1" id="圖層_1" xmlns="http://www.w3.org/2000/svg" xmlns:xlink="http://www.w3.org/1999/xlink" x="0px" y="0px"
	 width="16px" height="16px" viewBox="4 4 16 16" enable-background="new 4 4 16 16" xml:space="preserve">
<path fill="none" d="M0,0h24v24H0V0z"/>
<path opacity="0.5" fill="#3D1101" d="M16.8,7.2H7.2c-0.66,0-1.194,0.54-1.194,1.2L6,15.6c0,0.66,0.54,1.2,1.2,1.2h9.6
	c0.66,0,1.2-0.54,1.2-1.2V8.4C18,7.74,17.46,7.2,16.8,7.2z M16.2,15.6H7.8c-0.33,0-0.6-0.27-0.6-0.6V9.6l4.164,2.604
	c0.39,0.246,0.882,0.246,1.273,0L16.8,9.6V15C16.8,15.33,16.53,15.6,16.2,15.6z M12,11.4l-4.8-3h9.6L12,11.4z"/>
</svg>
