<?xml version="1.0" encoding="utf-8"?>
<!-- Generator: Adobe Illustrator 16.0.0, SVG Export Plug-In . SVG Version: 6.00 Build 0)  -->
<!DOCTYPE svg PUBLIC "-//W3C//DTD SVG 1.1//EN" "http://www.w3.org/Graphics/SVG/1.1/DTD/svg11.dtd">
<svg version="1.1" id="圖層_1" xmlns="http://www.w3.org/2000/svg" xmlns:xlink="http://www.w3.org/1999/xlink" x="0px" y="0px"
	 width="16px" height="16px" viewBox="0 0 16 16" enable-background="new 0 0 16 16" xml:space="preserve">
<path opacity="0.5" fill="#3D1101" d="M11.715,5.833h-0.619V4.595C11.096,2.888,9.709,1.5,8,1.5c-1.708,0-3.096,1.387-3.096,3.095
	v1.238H4.286c-0.682,0-1.238,0.558-1.238,1.237v6.191c0,0.68,0.557,1.238,1.238,1.238h7.429c0.68,0,1.237-0.559,1.237-1.238V7.071
	C12.952,6.391,12.395,5.833,11.715,5.833z M8,11.406c-0.682,0-1.238-0.561-1.238-1.238c0-0.682,0.559-1.24,1.238-1.24
	s1.238,0.559,1.238,1.24C9.238,10.848,8.682,11.406,8,11.406z M6.143,5.833V4.595c0-1.027,0.83-1.857,1.857-1.857
	s1.855,0.83,1.855,1.857v1.238H6.143z"/>
</svg>
