<?xml version="1.0" encoding="utf-8"?>
<!-- Generator: Adobe Illustrator 16.0.0, SVG Export Plug-In . SVG Version: 6.00 Build 0)  -->
<!DOCTYPE svg PUBLIC "-//W3C//DTD SVG 1.1//EN" "http://www.w3.org/Graphics/SVG/1.1/DTD/svg11.dtd">
<svg version="1.1"
	 id="Layer_1" xmlns:cc="http://creativecommons.org/ns#" xmlns:dc="http://purl.org/dc/elements/1.1/" xmlns:sodipodi="http://sodipodi.sourceforge.net/DTD/sodipodi-0.dtd" xmlns:inkscape="http://www.inkscape.org/namespaces/inkscape" xmlns:svg="http://www.w3.org/2000/svg" xmlns:rdf="http://www.w3.org/1999/02/22-rdf-syntax-ns#"
	 xmlns="http://www.w3.org/2000/svg" xmlns:xlink="http://www.w3.org/1999/xlink" x="0px" y="0px" width="512px" height="512px"
	 viewBox="0 0 512 512" enable-background="new 0 0 512 512" xml:space="preserve">
<path id="Brid_1_" fill="#FFFFFF" d="M416,162.133c-11.733,5.333-29.867,11.733-42.666,13.867
	c13.866-8.533,26.666-27.733,31.999-42.667c-10.667,6.4-22.399,14.933-34.133,19.2L362.667,144
	C350.933,131.2,339.2,122.667,320,122.667c-36.267,0-64,27.733-64,64c0,4.267,0,7.466,1.066,10.666H256
	c-64,0-106.667-13.867-138.667-53.333c-5.334,9.6-10.667,20.267-10.667,32c0,22.4,13.866,41.6,32,53.333
	c-10.667,0-23.466-5.333-32-10.667c0,32,44.8,68.267,74.666,74.667c-10.666,10.666-49.066,1.066-53.333,0
	c8.534,25.6,35.201,41.6,64,42.666c-22.401,17.066-49.067,26.667-80,26.667c-5.333,0-10.667,0-16-1.067
	c28.8,18.134,69.333,27.733,106.667,27.733c120.533,0,181.334-94.933,181.334-181.333c0-3.2,0-7.467,0-10.667
	C396.8,187.733,407.467,174.933,416,162.133z"/>
</svg>
